<svg width="1400" height="900" viewBox="0 0 1400 900" fill="none" xmlns="http://www.w3.org/2000/svg">
  <defs>
    <linearGradient id="paper" x1="112" y1="92" x2="1246" y2="790" gradientUnits="userSpaceOnUse">
      <stop stop-color="#F7F4EE"/>
      <stop offset="1" stop-color="#EEE7DA"/>
    </linearGradient>
    <linearGradient id="shadow" x1="700" y1="90" x2="700" y2="812" gradientUnits="userSpaceOnUse">
      <stop stop-color="#101724" stop-opacity="0.3"/>
      <stop offset="1" stop-color="#101724" stop-opacity="0.55"/>
    </linearGradient>
    <filter id="grain" x="-20%" y="-20%" width="140%" height="140%">
      <feTurbulence type="fractalNoise" baseFrequency="0.95" numOctaves="2" stitchTiles="stitch"/>
      <feComponentTransfer>
        <feFuncA type="table" tableValues="0 0.035"/>
      </feComponentTransfer>
    </filter>
  </defs>
  <rect width="1400" height="900" rx="28" fill="#0C1524"/>
  <rect x="82" y="72" width="1236" height="756" rx="28" fill="url(#shadow)"/>
  <g transform="rotate(-4 700 450)">
    <rect x="184" y="92" width="908" height="696" rx="18" fill="url(#paper)"/>
    <rect x="184" y="92" width="908" height="696" rx="18" stroke="#D8CCB7" stroke-opacity="0.75"/>
    <rect x="244" y="162" width="208" height="56" rx="10" fill="#E8DECD"/>
    <path d="M262 184H434" stroke="#716552" stroke-opacity="0.55" stroke-width="2"/>
    <path d="M244 260H760" stroke="#A99A83" stroke-width="2"/>
    <path d="M244 292H930" stroke="#A99A83" stroke-opacity="0.85" stroke-width="2"/>
    <path d="M244 324H914" stroke="#A99A83" stroke-opacity="0.75" stroke-width="2"/>
    <path d="M244 356H886" stroke="#A99A83" stroke-opacity="0.75" stroke-width="2"/>
    <path d="M244 422H1040" stroke="#A99A83" stroke-width="2"/>
    <path d="M244 454H1030" stroke="#A99A83" stroke-opacity="0.78" stroke-width="2"/>
    <path d="M244 486H1014" stroke="#A99A83" stroke-opacity="0.7" stroke-width="2"/>
    <rect x="244" y="552" width="342" height="144" rx="14" fill="#EFE5D4" stroke="#D4C4A9"/>
    <path d="M270 584H556" stroke="#97876D" stroke-width="2"/>
    <path d="M270 614H524" stroke="#97876D" stroke-opacity="0.72" stroke-width="2"/>
    <path d="M270 644H464" stroke="#97876D" stroke-opacity="0.62" stroke-width="2"/>
    <rect x="638" y="552" width="402" height="46" rx="10" fill="#E3EAD9" stroke="#AAB893"/>
    <path d="M662 575H1010" stroke="#4A5B3E" stroke-opacity="0.6" stroke-width="2"/>
    <rect x="638" y="618" width="402" height="46" rx="10" fill="#F0E7DA" stroke="#CDBA99"/>
    <path d="M662 641H962" stroke="#6E604B" stroke-opacity="0.6" stroke-width="2"/>
    <rect x="638" y="684" width="176" height="44" rx="10" fill="#0F2134"/>
    <path d="M670 706H782" stroke="#DAE5F5" stroke-opacity="0.82" stroke-width="2"/>
  </g>
  <g opacity="0.16">
    <path d="M78 154H1322" stroke="#D6E0ED" stroke-dasharray="5 8"/>
    <path d="M112 754H1288" stroke="#D6E0ED" stroke-dasharray="3 8"/>
  </g>
  <rect width="1400" height="900" rx="28" filter="url(#grain)"/>
</svg>
